<svg width="22" height="22" viewBox="0 0 22 22" fill="none" xmlns="http://www.w3.org/2000/svg">
<path d="M13.0875 14.0602C12.8977 14.0602 12.7349 13.9062 12.7349 13.7164C12.7349 13.5266 12.8799 13.3727 13.0697 13.3727H13.0875C13.2773 13.3727 13.4313 13.5266 13.4313 13.7164C13.4313 13.9062 13.2773 14.0602 13.0875 14.0602Z" fill="#003075" stroke="#003075" stroke-width="0.64"/>
<path d="M15.5926 14.0602C15.4028 14.0602 15.2395 13.9062 15.2395 13.7164C15.2395 13.5266 15.3838 13.3727 15.5737 13.3727H15.5927C15.7825 13.3727 15.9364 13.5266 15.9364 13.7164C15.9364 13.9062 15.7825 14.0602 15.5926 14.0602Z" fill="#003075" stroke="#003075" stroke-width="0.64"/>
<path d="M18.0965 14.0602C17.9067 14.0602 17.7434 13.9062 17.7434 13.7164C17.7434 13.5266 17.8877 13.3727 18.0776 13.3727H18.0966C18.2864 13.3727 18.4403 13.5266 18.4403 13.7164C18.4403 13.9062 18.2864 14.0602 18.0965 14.0602Z" fill="#003075" stroke="#003075" stroke-width="0.64"/>
<path d="M4.32575 8.65771C4.13593 8.65771 3.97192 8.50378 3.97192 8.31396C3.97192 8.12415 4.11561 7.97021 4.30543 7.97021H4.32575C4.51556 7.97021 4.6695 8.12415 4.6695 8.31396C4.6695 8.50378 4.51556 8.65771 4.32575 8.65771Z" fill="#003075" stroke="#003075" stroke-width="0.64"/>
<path d="M7.13385 8.65771C6.94403 8.65771 6.78003 8.50378 6.78003 8.31396C6.78003 8.12415 6.92389 7.97021 7.11371 7.97021H7.13385C7.32367 7.97021 7.4776 8.12415 7.4776 8.31396C7.4776 8.50378 7.3237 8.65771 7.13385 8.65771Z" fill="#003075" stroke="#003075" stroke-width="0.64"/>
<path d="M9.94196 8.65771C9.75214 8.65771 9.58813 8.50378 9.58813 8.31396C9.58813 8.12415 9.73199 7.97021 9.92181 7.97021H9.94196C10.1318 7.97021 10.2857 8.12415 10.2857 8.31396C10.2857 8.50378 10.1318 8.65771 9.94196 8.65771Z" fill="#003075" stroke="#003075" stroke-width="0.64"/>
<path d="M19.4332 8.96221C18.1758 7.92893 16.5917 7.44789 14.9721 7.60567C14.6087 7.64125 14.2548 7.71261 13.9104 7.80913C13.8399 6.72498 13.5085 5.67015 12.9408 4.73347C12.001 3.18223 10.5138 2.08989 8.75254 1.65766C6.99165 1.22546 5.16716 1.50524 3.61644 2.44502C0.414441 4.38484 -0.612443 8.56789 1.32734 11.7701C1.48158 12.0237 1.65194 12.2674 1.83557 12.497L1.10662 14.7166C1.06702 14.8376 1.09737 14.9705 1.18568 15.0624C1.25147 15.1305 1.34126 15.1676 1.43325 15.1676C1.46498 15.1676 1.49688 15.1633 1.52826 15.1542L4.21649 14.3816C5.90732 15.1861 7.82139 15.2578 9.55365 14.5942C9.77303 16.0257 10.4924 17.3855 11.6962 18.3753C13.2864 19.6825 15.3932 20.0949 17.3579 19.4912L19.6191 20.509C19.6642 20.5293 19.7124 20.5392 19.7602 20.5392C19.8353 20.5392 19.9098 20.5145 19.9712 20.4669C20.0718 20.3887 20.1208 20.2614 20.0988 20.136L19.7416 18.1038C19.9293 17.9262 20.1067 17.736 20.2707 17.5366C22.4031 14.9416 22.0272 11.095 19.4332 8.96221ZM4.40232 13.7072C4.32528 13.669 4.23684 13.6607 4.15358 13.6844L1.96252 14.3142L2.54779 12.5318C2.58505 12.4181 2.56071 12.2933 2.48333 12.2021C2.27571 11.9574 2.08438 11.6919 1.91518 11.4134C0.171926 8.53586 1.09493 4.77644 3.9728 3.033C5.36626 2.18807 7.0053 1.93696 8.58875 2.32519C10.1715 2.71376 11.5083 3.69548 12.3529 5.0898C12.8954 5.98478 13.1942 7.00015 13.23 8.03907C12.3164 8.41671 11.5041 9.01566 10.8589 9.8011C9.88111 10.991 9.43688 12.4435 9.4858 13.8737C7.84597 14.5621 6.00691 14.5095 4.40232 13.7072ZM19.7397 17.1001C19.5574 17.3218 19.3565 17.5306 19.1423 17.721C19.053 17.8002 19.0113 17.92 19.032 18.0375L19.3093 19.6156L17.52 18.8101C17.4752 18.79 17.427 18.7799 17.3789 18.7799C17.3424 18.7799 17.3059 18.7856 17.2708 18.7973C15.4954 19.3853 13.5745 19.0297 12.133 17.8443C9.83147 15.9522 9.49828 12.5398 11.3899 10.2375C12.3064 9.12216 13.6023 8.43046 15.0391 8.28997C16.4765 8.15 17.8812 8.57683 18.9966 9.49327C21.2979 11.3854 21.6311 14.7979 19.7397 17.1001Z" fill="#003075" stroke="#003075" stroke-width="0.64"/>
</svg>
