<svg width="64" height="64" viewBox="0 0 64 64" fill="none" xmlns="http://www.w3.org/2000/svg">
<path d="M56.3714 44.5853L48.8898 36.0076C47.7388 34.73 46.2041 34 44.4776 34H17.2367C15.5102 34 13.9755 34.73 12.8245 36.0076L5.34286 44.5853C4.38367 45.4978 4 46.7754 4 48.0529V52.2505C4 55.3531 6.49388 57.7257 9.7551 57.7257H51.9592C55.2204 57.7257 57.7143 55.3531 57.7143 52.2505V48.0529C57.7143 46.7754 57.3306 45.4978 56.3714 44.5853ZM15.8939 38.3801C16.2776 37.8326 16.6612 37.6501 17.2367 37.6501H44.2857C44.8612 37.6501 45.4367 37.8326 45.8204 38.3801L51.5755 44.9503H9.94694L15.8939 38.3801Z" fill="#00A6FB"/>
<path d="M32.8 2.19999C32.2 1.99999 31.6 1.99999 31 2.19999L19.2 8.19999L32 13.8L44.8 8.19999L32.8 2.19999Z" fill="#00DAE2"/>
<path d="M18 24C18 24.8 18.4 25.4 19.2 25.8L30 31.2V17.2L18 12V24Z" fill="#003075"/>
<path d="M34 17.2V31.2L44.8 25.8C45.4 25.4 46 24.8 46 24V12L34 17.2Z" fill="#9FF68A"/>
</svg>
