<svg width="22" height="22" viewBox="0 0 22 22" fill="none" xmlns="http://www.w3.org/2000/svg">
<path d="M11.9166 1.83331C9.38529 1.83331 7.33325 3.88534 7.33325 6.41665C7.33325 6.9229 7.74365 7.33331 8.24992 7.33331C8.75618 7.33331 9.16659 6.9229 9.16659 6.41665C9.16659 4.89787 10.3978 3.66665 11.9166 3.66665H15.5832C17.1021 3.66665 18.3332 4.89787 18.3332 6.41665V15.5833C18.3332 17.1021 17.1021 18.3333 15.5832 18.3333H11.9166C10.3978 18.3333 9.16659 17.1021 9.16659 15.5833C9.16659 15.077 8.75618 14.6666 8.24992 14.6666C7.74365 14.6666 7.33325 15.077 7.33325 15.5833C7.33325 18.1146 9.38529 20.1666 11.9166 20.1666H15.5832C18.1145 20.1666 20.1666 18.1146 20.1666 15.5833V6.41665C20.1666 3.88534 18.1145 1.83331 15.5832 1.83331H11.9166Z" fill="#FF3535"/>
<path d="M12.8333 10.0833C13.3395 10.0833 13.7499 10.4937 13.7499 11C13.7499 11.5063 13.3395 11.9166 12.8333 11.9166V10.0833Z" fill="#FF3535"/>
<path d="M5.24133 10.0833C5.32293 9.98267 5.40111 9.88504 5.47507 9.79182C5.7001 9.50793 5.89062 9.25868 6.02515 9.08002C6.09248 8.99061 6.14594 8.91866 6.18285 8.86866L6.22554 8.81064L6.23698 8.79498L6.24103 8.78943C6.24107 8.78937 6.24149 8.78878 5.4999 8.24999L6.24103 8.78943C6.5386 8.37985 6.44827 7.80596 6.0387 7.50838C5.62915 7.21082 5.05593 7.3016 4.75834 7.71112L4.75576 7.71467L4.74637 7.7275L4.70809 7.77954C4.67423 7.8254 4.62416 7.89279 4.56055 7.97728C4.43319 8.14642 4.25216 8.38329 4.03851 8.65274C3.60654 9.19754 3.05944 9.85241 2.56005 10.3518L1.91187 11L2.56005 11.6482C3.05944 12.1476 3.60654 12.8024 4.03851 13.3472C4.25216 13.6167 4.43319 13.8536 4.56055 14.0227C4.62416 14.1072 4.67423 14.1746 4.70809 14.2204L4.74637 14.2725L4.75576 14.2853L4.7579 14.2883C5.05548 14.6977 5.62915 14.7891 6.0387 14.4916C6.44827 14.194 6.53907 13.6207 6.24149 13.2112L5.4999 13.75C6.24149 13.2112 6.24154 13.2113 6.24149 13.2112L6.23698 13.205L6.22554 13.1894L6.18285 13.1313C6.14594 13.0813 6.09248 13.0094 6.02515 12.9199C5.89062 12.7413 5.7001 12.492 5.47507 12.2082C5.40111 12.1149 5.32293 12.0173 5.24133 11.9167H12.8332V10.0833H5.24133Z" fill="#FF3535"/>
</svg>
